<svg width="357" height="357" viewBox="0 0 357 357" fill="none" xmlns="http://www.w3.org/2000/svg">
<rect width="356.248" height="356.248" fill="black"/>
<path d="M297.525 173.442C298.175 173.817 298.79 174.461 299.37 175.373C299.986 176.306 300.547 177.376 301.053 178.582C301.559 179.789 301.995 181.075 302.361 182.441C302.764 183.828 303.065 185.181 303.266 186.499C303.467 187.818 303.58 189.038 303.606 190.16C303.632 191.282 303.569 192.183 303.416 192.865C303.312 193.045 303.212 193.301 303.118 193.631C303.023 193.961 302.862 194.325 302.632 194.722C300.632 198.186 298.197 200.821 295.326 202.628C292.454 204.434 289.278 205.727 285.796 206.508C282.315 207.288 278.594 207.69 274.635 207.714C270.733 207.722 266.741 207.679 262.659 207.583C261.969 210.36 261.329 213.094 260.738 215.784C260.148 218.474 259.607 220.952 259.116 223.219C258.625 225.486 258.172 227.437 257.757 229.074C257.341 230.71 256.956 231.835 256.602 232.449C255.102 235.047 253.129 237.131 250.683 238.702C248.236 240.272 245.544 241.436 242.605 242.193C239.702 242.971 236.671 243.386 233.513 243.439C230.335 243.528 227.255 243.362 224.275 242.941C221.331 242.54 218.613 241.957 216.12 241.191C213.627 240.426 211.605 239.595 210.053 238.699C209.115 238.157 208.307 237.306 207.63 236.145C206.932 235.021 206.357 233.726 205.903 232.262C205.486 230.818 205.196 229.279 205.032 227.645C204.812 226.027 204.739 224.445 204.813 222.9C204.851 221.334 205.002 219.906 205.266 218.615C205.494 217.303 205.848 216.232 206.327 215.402C208.39 211.83 210.927 209.061 213.938 207.095C216.913 205.108 220.212 203.645 223.834 202.705C227.456 201.765 231.298 201.193 235.361 200.988C239.481 200.769 243.678 200.666 247.953 200.68C248.691 197.402 249.461 194.358 250.265 191.551C251.068 188.743 251.938 186.527 252.876 184.903C254.209 182.594 255.893 180.511 257.927 178.654C260.018 176.782 262.307 175.193 264.793 173.886C267.337 172.564 270.003 171.529 272.792 170.782C275.617 170.055 278.441 169.665 281.263 169.61C284.142 169.54 286.962 169.822 289.724 170.454C292.507 171.05 295.108 172.047 297.525 173.442ZM241.457 224.931C241.894 224.173 242.317 223.191 242.726 221.983C243.134 220.776 243.533 219.418 243.922 217.911C244.347 216.424 244.753 214.806 245.138 213.056C245.544 211.269 245.942 209.454 246.332 207.611C243.277 207.82 240.293 208.238 237.381 208.866C234.468 209.494 231.676 210.456 229.003 211.751C226.388 213.032 223.915 214.731 221.585 216.85C219.312 218.954 217.259 221.593 215.425 224.769C215.238 225.094 214.977 225.545 214.644 226.122C214.368 226.684 214.135 227.295 213.946 227.956C213.757 228.617 213.71 229.239 213.806 229.824C213.881 230.444 214.207 230.921 214.784 231.255C215.83 231.859 217.1 232.327 218.592 232.659C220.12 233.012 221.724 233.193 223.404 233.2C225.119 233.228 226.864 233.081 228.638 232.758C230.412 232.435 232.094 231.939 233.684 231.269C235.33 230.584 236.82 229.712 238.153 228.653C239.522 227.615 240.623 226.375 241.457 224.931ZM296.788 180.594C293.93 179.378 291.08 178.814 288.237 178.905C285.415 178.96 282.743 179.462 280.222 180.412C277.737 181.383 275.494 182.686 273.491 184.32C271.546 185.94 270.021 187.706 268.917 189.618C268.126 190.989 267.367 192.596 266.64 194.437C265.913 196.279 265.235 198.245 264.606 200.336C267.868 200.102 271.038 199.695 274.116 199.114C277.214 198.498 280.125 197.58 282.849 196.362C285.594 195.108 288.118 193.487 290.421 191.497C292.782 189.492 294.848 186.956 296.618 183.888C296.952 183.311 297.22 182.72 297.425 182.117C297.686 181.498 297.474 180.99 296.788 180.594Z" fill="white"/>
<path d="M210.035 226.631C206.202 230.381 202.577 233.527 199.16 236.068C195.785 238.61 192.556 240.652 189.473 242.193C186.389 243.735 183.431 244.839 180.598 245.506C177.806 246.173 175.077 246.506 172.41 246.506C171.285 246.506 170.035 246.089 168.66 245.256C167.285 244.423 166.014 243.402 164.848 242.193C163.639 241.027 162.639 239.798 161.848 238.506C161.056 237.214 160.66 236.11 160.66 235.193C160.66 231.777 161.139 228.652 162.098 225.818C163.014 222.943 164.243 220.36 165.785 218.068C167.327 215.777 169.077 213.756 171.035 212.006C173.035 210.256 175.098 208.798 177.223 207.631C179.389 206.464 181.535 205.589 183.66 205.006C185.785 204.423 187.743 204.131 189.535 204.131C190.827 204.131 192.098 204.506 193.348 205.256C194.639 206.006 195.806 206.923 196.848 208.006C197.889 209.089 198.723 210.235 199.348 211.443C200.014 212.61 200.348 213.631 200.348 214.506C200.348 215.923 199.743 217.381 198.535 218.881C197.368 220.339 195.702 221.839 193.535 223.381C191.368 224.923 188.764 226.506 185.723 228.131C182.681 229.714 179.327 231.318 175.66 232.943C175.535 233.943 175.473 234.923 175.473 235.881C175.473 237.173 175.743 238.048 176.285 238.506C176.868 238.964 177.931 239.193 179.473 239.193C182.223 239.193 184.806 238.735 187.223 237.818C189.681 236.902 192.035 235.714 194.285 234.256C196.535 232.798 198.702 231.131 200.785 229.256C202.868 227.381 204.931 225.485 206.973 223.568L210.035 226.631ZM188.035 211.006C187.202 211.006 186.285 211.464 185.285 212.381C184.285 213.256 183.285 214.423 182.285 215.881C181.285 217.339 180.327 219.027 179.41 220.943C178.493 222.818 177.702 224.777 177.035 226.818C178.577 225.818 180.077 224.756 181.535 223.631C183.035 222.506 184.368 221.339 185.535 220.131C186.702 218.881 187.639 217.61 188.348 216.318C189.056 215.027 189.41 213.735 189.41 212.443C189.41 212.068 189.285 211.735 189.035 211.443C188.827 211.152 188.493 211.006 188.035 211.006Z" fill="white"/>
<path d="M155.348 216.131C154.806 217.756 154.118 219.61 153.285 221.693C152.493 223.777 151.723 225.818 150.973 227.818C150.223 229.818 149.577 231.631 149.035 233.256C148.535 234.881 148.285 236.048 148.285 236.756C148.285 237.006 148.41 237.131 148.66 237.131C149.118 237.131 149.806 236.86 150.723 236.318C151.639 235.777 152.681 235.068 153.848 234.193C155.056 233.318 156.306 232.36 157.598 231.318C158.889 230.277 160.118 229.256 161.285 228.256C162.493 227.214 163.577 226.277 164.535 225.443C165.493 224.61 166.223 223.985 166.723 223.568C167.098 223.943 167.535 224.423 168.035 225.006C168.577 225.589 169.077 226.131 169.535 226.631C168.618 227.548 167.473 228.673 166.098 230.006C164.723 231.298 163.223 232.631 161.598 234.006C160.014 235.381 158.348 236.756 156.598 238.131C154.889 239.506 153.202 240.735 151.535 241.818C149.91 242.902 148.389 243.777 146.973 244.443C145.556 245.11 144.368 245.443 143.41 245.443C142.785 245.443 141.993 245.214 141.035 244.756C140.077 244.339 139.16 243.798 138.285 243.131C137.41 242.506 136.66 241.798 136.035 241.006C135.41 240.214 135.098 239.443 135.098 238.693C135.723 235.902 136.348 233.464 136.973 231.381C137.598 229.298 138.181 227.527 138.723 226.068C139.264 224.568 139.743 223.36 140.16 222.443C140.577 221.527 140.889 220.839 141.098 220.381C140.598 220.173 140.118 219.943 139.66 219.693C139.202 219.443 138.743 219.193 138.285 218.943C137.618 219.652 136.868 220.402 136.035 221.193C135.243 221.985 134.431 222.777 133.598 223.568C132.764 224.36 131.931 225.131 131.098 225.881C130.264 226.631 129.514 227.318 128.848 227.943L125.848 224.881C126.931 223.839 128.243 222.589 129.785 221.131C131.285 219.631 132.764 218.131 134.223 216.631C133.181 216.006 132.243 215.423 131.41 214.881C130.577 214.298 129.868 213.777 129.285 213.318C128.577 212.818 127.952 212.36 127.41 211.943C127.16 211.818 127.035 211.548 127.035 211.131C127.035 210.673 127.223 210.027 127.598 209.193C127.931 208.318 128.368 207.402 128.91 206.443C129.452 205.443 130.035 204.443 130.66 203.443C131.285 202.402 131.889 201.464 132.473 200.631C133.056 199.798 133.556 199.131 133.973 198.631C134.431 198.089 134.723 197.818 134.848 197.818C134.931 197.818 135.202 197.923 135.66 198.131C136.16 198.339 136.681 198.589 137.223 198.881C137.764 199.131 138.264 199.423 138.723 199.756C139.181 200.089 139.473 200.381 139.598 200.631C139.639 200.839 139.681 201.277 139.723 201.943C139.764 202.61 139.806 203.423 139.848 204.381C141.473 205.214 143.139 206.173 144.848 207.256C146.556 208.298 148.118 209.298 149.535 210.256C151.202 211.339 152.785 212.443 154.285 213.568C154.827 213.902 155.16 214.318 155.285 214.818C155.452 215.318 155.473 215.756 155.348 216.131Z" fill="white"/>
<path d="M120.675 181.049C121.542 179.85 122.391 178.435 123.22 176.803C124.072 175.116 124.851 173.302 125.556 171.361C126.285 169.365 126.917 167.296 127.452 165.153C127.972 162.971 128.337 160.852 128.547 158.794C128.781 156.682 128.829 154.666 128.691 152.747C128.537 150.789 128.144 149.017 127.511 147.431C127.032 146.231 126.549 145.302 126.062 144.644C125.575 143.986 125.08 143.533 124.577 143.285C124.098 142.983 123.614 142.84 123.127 142.855C122.639 142.87 122.163 142.97 121.699 143.156C119.841 143.897 118.049 145.533 116.322 148.061C114.579 150.552 112.933 153.676 111.383 157.436C109.856 161.141 108.438 165.341 107.127 170.037C105.855 174.717 104.768 179.637 103.867 184.797C102.951 189.919 102.224 195.122 101.686 200.406C101.187 205.675 100.936 210.777 100.933 215.714C100.968 220.635 101.263 225.25 101.817 229.56C102.395 233.816 103.301 237.492 104.537 240.588C105.001 241.749 105.464 242.685 105.928 243.397C106.415 244.055 106.906 244.555 107.401 244.896C107.919 245.182 108.461 245.302 109.025 245.256C109.59 245.21 110.202 245.056 110.86 244.793C111.982 244.345 113.112 243.356 114.251 241.825C115.412 240.239 116.543 238.352 117.643 236.163C118.782 233.959 119.852 231.58 120.851 229.028C121.89 226.46 122.828 223.977 123.665 221.579C124.487 219.142 125.216 216.922 125.852 214.918C126.472 212.876 126.933 211.279 127.236 210.126C127.251 210.165 127.878 210.386 129.116 210.789C130.392 211.177 131.885 211.657 133.595 212.231C135.304 212.805 137.021 213.398 138.746 214.01C140.456 214.584 141.779 215.088 142.715 215.522C142.203 216.937 141.556 218.743 140.773 220.94C139.99 223.137 139.052 225.508 137.959 228.053C136.89 230.544 135.693 233.108 134.368 235.745C133.043 238.383 131.583 240.85 129.987 243.147C128.407 245.482 126.692 247.535 124.842 249.306C123.007 251.115 121.044 252.437 118.955 253.271C117.446 253.874 115.654 254.051 113.581 253.802C111.523 253.591 109.368 253.083 107.117 252.277C104.882 251.509 102.693 250.521 100.55 249.313C98.4234 248.143 96.5286 246.881 94.866 245.525C92.84 243.822 91.3672 242.099 90.4477 240.358C89.5281 238.616 88.8521 237.204 88.4195 236.12C87.23 233.14 86.3117 229.604 85.6645 225.51C85.0173 221.417 84.676 217.022 84.6405 212.325C84.5896 207.59 84.8444 202.665 85.4049 197.551C85.9655 192.438 86.8123 187.366 87.9454 182.338C89.1171 177.294 90.5944 172.397 92.3772 167.648C94.1987 162.883 96.3333 158.509 98.781 154.526C101.267 150.527 104.075 147.051 107.202 144.098C110.354 141.09 113.845 138.821 117.676 137.292C118.759 136.86 120.017 136.694 121.448 136.796C122.864 136.858 124.338 137.122 125.869 137.588C127.385 138.014 128.925 138.611 130.487 139.378C132.05 140.145 133.492 141.005 134.814 141.958C136.121 142.872 137.262 143.874 138.236 144.966C139.234 146.003 139.941 147.045 140.358 148.089C141.285 150.411 141.848 153.17 142.047 156.366C142.23 159.523 142.1 162.85 141.657 166.346C141.198 169.805 140.407 173.329 139.282 176.918C138.197 180.492 136.84 183.837 135.213 186.954L120.675 181.049Z" fill="white"/>
<rect x="199.389" y="139.577" width="15.2821" height="38.5469" fill="white"/>
<rect x="156.024" y="139.577" width="15.2821" height="38.5469" fill="white"/>
<path d="M289.194 158.285L289.38 154.362L287.842 154.29L287.883 153.416L292.015 153.611L291.974 154.485L290.429 154.412L290.243 158.335L289.194 158.285Z" fill="white"/>
<path d="M294.84 158.509L297.581 154.566L299.834 156.133C300.041 156.276 300.199 156.446 300.307 156.641C300.42 156.839 300.474 157.043 300.468 157.256C300.463 157.468 300.392 157.672 300.256 157.867C300.147 158.024 300.021 158.144 299.878 158.227C299.736 158.309 299.587 158.356 299.431 158.367C299.279 158.381 299.129 158.365 298.979 158.318L298.964 158.341C299.088 158.473 299.176 158.619 299.229 158.781C299.285 158.945 299.299 159.117 299.271 159.296C299.249 159.475 299.176 159.654 299.051 159.834C298.886 160.071 298.692 160.232 298.469 160.316C298.249 160.402 298.022 160.423 297.786 160.378C297.55 160.333 297.321 160.234 297.098 160.079L294.84 158.509ZM296.184 158.403L297.419 159.262C297.561 159.361 297.704 159.4 297.848 159.381C297.996 159.365 298.128 159.272 298.246 159.104C298.315 159.004 298.356 158.904 298.368 158.805C298.38 158.706 298.361 158.61 298.311 158.518C298.264 158.423 298.181 158.334 298.062 158.251L296.867 157.42L296.184 158.403ZM297.33 156.754L298.468 157.545C298.572 157.617 298.671 157.657 298.767 157.667C298.869 157.676 298.96 157.659 299.04 157.618C299.126 157.576 299.2 157.511 299.261 157.422C299.365 157.273 299.401 157.131 299.37 156.995C299.343 156.863 299.263 156.75 299.128 156.657L297.962 155.845L297.33 156.754Z" fill="white"/>
<path d="M300.384 162.521L304.704 160.426L305.56 162.189C305.777 162.639 305.885 163.059 305.882 163.449C305.88 163.839 305.76 164.196 305.522 164.518C305.291 164.843 304.927 165.126 304.432 165.366C303.94 165.604 303.493 165.715 303.091 165.697C302.69 165.684 302.336 165.558 302.028 165.318C301.72 165.079 301.457 164.734 301.239 164.285L300.384 162.521ZM301.613 163.084L302.01 163.903C302.102 164.092 302.211 164.247 302.337 164.367C302.463 164.487 302.601 164.571 302.753 164.616C302.909 164.66 303.079 164.668 303.263 164.641C303.451 164.612 303.653 164.546 303.867 164.442L304.056 164.35C304.27 164.246 304.444 164.131 304.58 164.003C304.719 163.873 304.818 163.734 304.876 163.587C304.938 163.437 304.961 163.276 304.944 163.102C304.932 162.927 304.88 162.745 304.788 162.556L304.391 161.737L301.613 163.084Z" fill="white"/>
</svg>
